<svg xmlns="http://www.w3.org/2000/svg" xmlns:xlink="http://www.w3.org/1999/xlink" version="1.1" x="0px" y="0px" viewBox="0 0 100 125" enable-background="new 0 0 100 100" xml:space="preserve"><g><path fill="#000000" d="M43.1,73.6c-2.6,1.4-3.5,4.6-2.1,7.2c1.4,2.6,4.6,3.5,7.2,2.1c2.6-1.4,3.5-4.7,2.1-7.2   C48.9,73.1,45.7,72.1,43.1,73.6z"/><path fill="#000000" d="M58,83.8c0.2,1.1,1.5,1.6,2.5,1l3.7-2.6c0.9-0.6,0.9-1.9,0-2.6l-5.2-3.9c-1.2-0.9-2.8,0.2-2.5,1.6L58,83.8z   "/><path fill="#000000" d="M65.9,70.7c2.6-1.4,3.5-4.7,2.1-7.2c-1.4-2.6-4.6-3.5-7.2-2.1c-2.6,1.4-3.5,4.7-2.1,7.2   C60.1,71.2,63.4,72.1,65.9,70.7z"/><path fill="#000000" d="M93.5,37.3c-18.8-13.9-36-22.7-51.3-26.3c-1.9-2.3-4.8-3.8-8-3.8c-2.1,0-4,0.6-5.6,1.6   c-1.2-2-3.4-3.4-5.9-3.4c-1.8,0-3.5,0.7-4.7,1.9C15.8,7.1,9.8,7.1,6.6,9C6,9.4,5.7,10.1,5.9,10.8C6.1,11.5,6.7,12,7.4,12   c2.5,0.1,7.7,0.9,9,2.9c0.1,0.2,0.2,0.4,0.3,0.6c0,0,0,0.1,0.1,0.1c1.2,2,3.4,3.4,5.9,3.4c0.5,0,0.9,0,1.3-0.1   c0.7,5,5,8.8,10.2,8.8c0.4,0,0.8,0,1.2-0.1c2.3,2.9,6.5,5.9,10.6,8.9c1.8,1.3,4.1,3,5.6,4.3c1.1,1,1.2,2.7,0.2,3.7   c-1.8,1.8-3.9,3.3-4.6,3.9c-3.4,0-5.3,0.7-6.2,2.1c-0.2,0.3-0.3,0.6-0.4,0.9c-6.3,3.5-11.2,9.8-13.1,16.9c-1.6,6-0.8,12,2.1,16.8   c5,8.1,11.5,9.4,15,9.4c2.5,0,4.9-0.6,6.9-1.7c0.4-0.2,0.8-0.3,1.3-0.3c0.9,0,1.8,0.4,2.9,0.9c1.5,0.7,3.1,1.4,5.2,1.4   c1.3,0,2.6-0.3,4-1c1.3-0.6,2.7-1.6,4.1-2.9c3.9-3.6,3.5-7.1,3.2-9.7c-0.2-2.1-0.3-3.2,0.7-4.3c3.6-4,3.1-11.2,0.5-15.8   c-4.2-7.7-12.2-12.5-20.9-12.6c1.9-1.5,10.3-9.5,12-11.5c0.1-0.1,0.2-0.1,0.3,0C76.5,45,87.1,55.1,88,56c0.3,0.3,0.7,0.5,1.2,0.5h0   c0.7,0,1.3-0.4,1.6-1.1c0.2-0.6,0-1.2-0.3-1.6c-6.7-8.8-13-15.9-18.5-21.4c-0.2-0.2,0-0.5,0.2-0.4c10,2.3,19.5,7.9,19.6,8   c0.3,0.2,0.6,0.2,0.8,0.2c0.5,0,1-0.3,1.4-0.7C94.4,38.8,94.2,37.8,93.5,37.3z M22.7,15.8c-2,0-3.6-1.6-3.6-3.6s1.6-3.6,3.6-3.6   c2,0,3.6,1.6,3.6,3.6S24.7,15.8,22.7,15.8z M70.6,62.5c2,3.6,2.4,9.3-0.1,12.1c-2,2.3-1.8,4.7-1.5,6.9c0.3,2.4,0.5,4.5-2.2,7   c-2.1,2-4,3-5.8,3c-1.4,0-2.6-0.5-3.8-1.1c-1.3-0.6-2.7-1.2-4.2-1.2c-1,0-1.9,0.2-2.8,0.7c-0.9,0.5-2.8,1.3-5.4,1.3   c-3.4,0-8.2-1.4-12.2-7.8c-2.5-4-3.1-9.1-1.8-14.2c1.7-6.3,6-11.9,11.5-14.9c0.5-0.3,1.1-0.6,1.6-0.8c0.1,0.3,0.4,0.6,0.7,0.8   c0.8,0.4,1.8,0.1,2.2-0.7c0.6-1.2,1.3-1.4,1.6-1.5c0,0.3,0,0.6,0,0.9c-0.1,0.9,0.5,1.7,1.4,1.9c0.1,0,0.2,0,0.3,0   c0.8,0,1.5-0.6,1.6-1.4c0-0.2,0.1-0.9,0-1.8c0.2,0,0.4,0,0.6,0C59.9,51.6,66.9,55.8,70.6,62.5z"/><circle fill="#000000" cx="22.7" cy="12.2" r="1.7"/></g><text x="0" y="115" fill="#000000" font-size="5px" font-weight="bold" font-family="'Helvetica Neue', Helvetica, Arial-Unicode, Arial, Sans-serif">Created by HeadsOfBirds</text><text x="0" y="120" fill="#000000" font-size="5px" font-weight="bold" font-family="'Helvetica Neue', Helvetica, Arial-Unicode, Arial, Sans-serif">from the Noun Project</text></svg>